<svg xmlns="http://www.w3.org/2000/svg" xmlns:xlink="http://www.w3.org/1999/xlink" width="200" zoomAndPan="magnify" viewBox="0 0 150 52.499999" height="70" preserveAspectRatio="xMidYMid meet" version="1.0"><defs><g/><clipPath id="d0ef2f2066"><path d="M 82.167969 2.476562 L 124.515625 2.476562 L 124.515625 34.421875 L 82.167969 34.421875 Z M 82.167969 2.476562 " clip-rule="nonzero"/></clipPath></defs><g clip-path="url(#d0ef2f2066)"><path fill="#ffee00" d="M 124.457031 22.175781 C 124.28125 22.8125 124.097656 23.304688 123.042969 23.285156 C 122.601562 23.269531 122.167969 23.214844 121.738281 23.109375 C 119.914062 22.816406 117.78125 22.289062 115.976562 21.792969 C 115.9375 21.785156 115.898438 21.773438 115.855469 21.761719 C 113.683594 21.164062 112.019531 20.625 112.019531 20.625 C 111.023438 20.476562 109.996094 20.554688 108.980469 20.519531 C 108.574219 20.503906 108.167969 20.445312 107.484375 20.382812 C 107.925781 20.847656 108.1875 21.152344 108.476562 21.425781 C 109.507812 22.402344 110.59375 23.328125 111.570312 24.359375 C 112.320312 25.15625 112.941406 26.078125 113.621094 26.9375 C 113.757812 27.105469 113.914062 27.261719 114.078125 27.398438 C 115.113281 28.285156 115.316406 29.132812 114.796875 30.496094 L 114.15625 31.03125 C 113.226562 31.101562 112.835938 30.703125 112.277344 29.964844 C 111.09375 28.394531 109.492188 27.148438 108.109375 25.722656 C 106.90625 24.480469 105.769531 23.175781 104.609375 21.890625 C 104.117188 21.347656 103.640625 20.785156 103.058594 20.117188 C 102.808594 22.042969 102.554688 23.816406 102.359375 25.597656 C 102.183594 27.171875 102.214844 28.785156 101.859375 30.316406 C 101.816406 30.550781 101.800781 30.789062 101.808594 31.03125 L 101.804688 31.046875 C 101.808594 31.21875 101.792969 31.394531 101.761719 31.566406 C 101.679688 32.289062 101.4375 33.535156 100.753906 33.890625 C 100.175781 34.359375 99.324219 34.777344 98.742188 34.011719 C 98.429688 33.601562 98.464844 32.839844 98.519531 32.253906 C 98.761719 29.574219 99.042969 26.902344 99.363281 24.230469 C 99.445312 23.53125 99.691406 22.851562 99.863281 22.160156 L 99.640625 22.003906 C 98.386719 22.792969 97.152344 23.605469 95.878906 24.363281 C 93.519531 25.773438 91.164062 27.195312 88.742188 28.5 C 87.332031 29.558594 86.585938 28.8125 86.585938 28.8125 C 86.523438 28.679688 86.460938 28.546875 86.398438 28.417969 C 86.617188 28.085938 86.765625 27.664062 87.066406 27.445312 C 88.832031 26.160156 90.632812 24.925781 92.417969 23.671875 C 93.738281 22.742188 95.050781 21.808594 96.375 20.882812 C 97.078125 20.394531 97.792969 19.921875 98.671875 19.328125 C 96.996094 19.054688 95.53125 18.847656 94.078125 18.566406 C 91.980469 18.15625 89.898438 17.679688 87.804688 17.253906 C 87.175781 17.125 86.515625 17.125 85.902344 16.953125 C 85.097656 16.726562 84.324219 16.386719 83.535156 16.089844 C 83.378906 16.03125 83.21875 15.882812 83.074219 15.898438 C 82.167969 14.789062 83.25 14.519531 83.25 14.519531 C 86.1875 14.863281 89.125 15.21875 92.058594 15.613281 C 93.597656 15.820312 95.121094 16.152344 96.664062 16.34375 C 97.832031 16.488281 99.015625 16.496094 100.144531 16.5625 C 98.714844 14.820312 97.375 13.242188 96.09375 11.613281 C 94.921875 10.125 93.699219 8.644531 93.417969 6.621094 C 93.414062 6.570312 93.425781 6.527344 93.460938 6.488281 C 93.496094 6.453125 93.542969 6.433594 93.59375 6.4375 C 95.1875 6.554688 95.859375 7.824219 96.78125 8.71875 C 97.78125 9.691406 98.734375 10.714844 99.6875 11.730469 C 100.128906 12.199219 100.527344 12.710938 101.082031 13.363281 C 101.316406 12.117188 101.53125 11.039062 101.71875 9.957031 C 101.964844 8.546875 102.171875 7.132812 102.421875 5.722656 C 102.578125 4.824219 102.734375 3.921875 102.992188 3.050781 C 103.019531 2.976562 103.058594 2.910156 103.109375 2.851562 C 103.433594 2.480469 104.054688 2.542969 104.316406 2.960938 C 104.359375 3.027344 104.386719 3.097656 104.398438 3.171875 C 104.855469 6.277344 104.355469 9.320312 103.808594 12.367188 C 103.671875 13.128906 103.75 13.929688 103.722656 14.707031 C 103.710938 15.042969 103.675781 15.375 103.640625 15.84375 C 105 15 106.402344 14.238281 107.679688 13.304688 C 109.527344 11.949219 111.28125 10.464844 113.082031 9.042969 C 114 8.320312 115.203125 8.5 115.761719 9.417969 C 116.085938 9.945312 115.59375 11.082031 114.8125 11.554688 L 113.191406 12.785156 C 111.296875 14.214844 109.371094 15.601562 107.457031 17 C 107.316406 17.101562 107.175781 17.207031 107.011719 17.328125 C 108.953125 17.605469 110.789062 17.816406 112.605469 18.140625 C 115.023438 18.574219 117.433594 19.070312 119.835938 19.589844 C 121.097656 19.863281 122.339844 20.199219 123.566406 20.597656 C 124.265625 20.824219 124.664062 21.4375 124.457031 22.175781 Z M 124.457031 22.175781 " fill-opacity="1" fill-rule="nonzero"/></g><g fill="#0b0b0b" fill-opacity="1"><g transform="translate(11.02676, 22.058107)"><g><path d="M 16.859375 -0.765625 C 16.898438 -0.691406 16.921875 -0.59375 16.921875 -0.46875 C 16.921875 -0.351562 16.867188 -0.242188 16.765625 -0.140625 C 16.671875 -0.046875 16.550781 0 16.40625 0 L 11.078125 0 C 10.617188 0 10.296875 -0.175781 10.109375 -0.53125 L 7.25 -5.640625 L 7.25 -0.625 C 7.25 -0.457031 7.1875 -0.3125 7.0625 -0.1875 C 6.9375 -0.0625 6.789062 0 6.625 0 L 2.15625 0 C 1.976562 0 1.828125 -0.0625 1.703125 -0.1875 C 1.578125 -0.3125 1.515625 -0.457031 1.515625 -0.625 L 1.515625 -15.75 C 1.515625 -15.925781 1.578125 -16.078125 1.703125 -16.203125 C 1.828125 -16.328125 1.976562 -16.390625 2.15625 -16.390625 L 6.625 -16.390625 C 6.789062 -16.390625 6.9375 -16.328125 7.0625 -16.203125 C 7.1875 -16.078125 7.25 -15.925781 7.25 -15.75 L 7.25 -11.125 L 9.90625 -15.875 C 10.070312 -16.21875 10.382812 -16.390625 10.84375 -16.390625 L 16.015625 -16.390625 C 16.148438 -16.390625 16.269531 -16.335938 16.375 -16.234375 C 16.476562 -16.128906 16.53125 -16.019531 16.53125 -15.90625 C 16.53125 -15.789062 16.503906 -15.691406 16.453125 -15.609375 L 12.234375 -8.546875 Z M 16.859375 -0.765625 "/></g></g></g><g fill="#0b0b0b" fill-opacity="1"><g transform="translate(32.324727, 22.058107)"><g><path d="M 6.640625 -16.390625 L 11.71875 -16.390625 C 12.28125 -16.390625 12.632812 -16.128906 12.78125 -15.609375 L 18 -0.671875 C 18.007812 -0.628906 18.015625 -0.554688 18.015625 -0.453125 C 18.015625 -0.347656 17.960938 -0.242188 17.859375 -0.140625 C 17.765625 -0.046875 17.648438 0 17.515625 0 L 13.171875 0 C 12.703125 0 12.398438 -0.191406 12.265625 -0.578125 L 11.703125 -2.125 L 6.671875 -2.125 L 6.109375 -0.578125 C 5.960938 -0.191406 5.660156 0 5.203125 0 L 0.859375 0 C 0.722656 0 0.601562 -0.046875 0.5 -0.140625 C 0.394531 -0.242188 0.34375 -0.347656 0.34375 -0.453125 C 0.34375 -0.554688 0.351562 -0.628906 0.375 -0.671875 L 5.59375 -15.609375 C 5.738281 -16.128906 6.085938 -16.390625 6.640625 -16.390625 Z M 7.859375 -6.6875 L 10.515625 -6.6875 L 9.171875 -11.046875 Z M 7.859375 -6.6875 "/></g></g></g><g fill="#0b0b0b" fill-opacity="1"><g transform="translate(54.839617, 22.058107)"><g><path d="M 16.59375 -0.765625 C 16.644531 -0.671875 16.671875 -0.566406 16.671875 -0.453125 C 16.671875 -0.347656 16.617188 -0.242188 16.515625 -0.140625 C 16.410156 -0.046875 16.289062 0 16.15625 0 L 11.359375 0 C 10.867188 0 10.53125 -0.207031 10.34375 -0.625 L 8.328125 -5.109375 L 7.375 -5.109375 L 7.375 -0.625 C 7.375 -0.457031 7.3125 -0.3125 7.1875 -0.1875 C 7.0625 -0.0625 6.910156 0 6.734375 0 L 2.15625 0 C 1.976562 0 1.828125 -0.0625 1.703125 -0.1875 C 1.578125 -0.3125 1.515625 -0.457031 1.515625 -0.625 L 1.515625 -15.75 C 1.515625 -15.925781 1.578125 -16.078125 1.703125 -16.203125 C 1.828125 -16.328125 1.976562 -16.390625 2.15625 -16.390625 L 9.078125 -16.390625 C 11.328125 -16.390625 13.082031 -15.882812 14.34375 -14.875 C 15.613281 -13.863281 16.25 -12.414062 16.25 -10.53125 C 16.25 -8.65625 15.40625 -7.179688 13.71875 -6.109375 Z M 7.375 -12.03125 L 7.375 -9.546875 L 9.078125 -9.546875 C 9.421875 -9.546875 9.6875 -9.660156 9.875 -9.890625 C 10.0625 -10.117188 10.15625 -10.40625 10.15625 -10.75 C 10.15625 -11.09375 10.066406 -11.390625 9.890625 -11.640625 C 9.710938 -11.898438 9.441406 -12.03125 9.078125 -12.03125 Z M 7.375 -12.03125 "/></g></g></g><g fill="#0b0b0b" fill-opacity="1"><g transform="translate(76.348211, 22.058107)"><g><path d="M 6.921875 0 L 2.15625 0 C 1.976562 0 1.828125 -0.0625 1.703125 -0.1875 C 1.578125 -0.3125 1.515625 -0.457031 1.515625 -0.625 L 1.515625 -15.75 C 1.515625 -15.925781 1.578125 -16.078125 1.703125 -16.203125 C 1.828125 -16.328125 1.976562 -16.390625 2.15625 -16.390625 L 6.921875 -16.390625 C 7.097656 -16.390625 7.25 -16.328125 7.375 -16.203125 C 7.5 -16.078125 7.5625 -15.925781 7.5625 -15.75 L 7.5625 -0.625 C 7.5625 -0.457031 7.5 -0.3125 7.375 -0.1875 C 7.25 -0.0625 7.097656 0 6.921875 0 Z M 6.921875 0 "/></g></g></g><g fill="#0b0b0b" fill-opacity="1"><g transform="translate(11.02676, 45.088766)"><g><path d="M 2.15625 -16.390625 L 8.890625 -16.390625 C 11.171875 -16.390625 13.046875 -15.820312 14.515625 -14.6875 C 15.992188 -13.550781 16.734375 -11.972656 16.734375 -9.953125 L 16.734375 -6.453125 C 16.734375 -4.335938 16.015625 -2.734375 14.578125 -1.640625 C 13.140625 -0.546875 11.253906 0 8.921875 0 L 2.15625 0 C 1.976562 0 1.828125 -0.0625 1.703125 -0.1875 C 1.578125 -0.3125 1.515625 -0.457031 1.515625 -0.625 L 1.515625 -15.75 C 1.515625 -15.925781 1.578125 -16.078125 1.703125 -16.203125 C 1.828125 -16.328125 1.976562 -16.390625 2.15625 -16.390625 Z M 7.375 -11.8125 L 7.375 -4.5625 L 8.890625 -4.5625 C 9.421875 -4.5625 9.847656 -4.722656 10.171875 -5.046875 C 10.492188 -5.367188 10.65625 -5.835938 10.65625 -6.453125 L 10.65625 -9.953125 C 10.65625 -11.191406 10.066406 -11.8125 8.890625 -11.8125 Z M 7.375 -11.8125 "/></g></g></g><g fill="#0b0b0b" fill-opacity="1"><g transform="translate(32.956591, 45.088766)"><g><path d="M 16.59375 -0.765625 C 16.644531 -0.671875 16.671875 -0.566406 16.671875 -0.453125 C 16.671875 -0.347656 16.617188 -0.242188 16.515625 -0.140625 C 16.410156 -0.046875 16.289062 0 16.15625 0 L 11.359375 0 C 10.867188 0 10.53125 -0.207031 10.34375 -0.625 L 8.328125 -5.109375 L 7.375 -5.109375 L 7.375 -0.625 C 7.375 -0.457031 7.3125 -0.3125 7.1875 -0.1875 C 7.0625 -0.0625 6.910156 0 6.734375 0 L 2.15625 0 C 1.976562 0 1.828125 -0.0625 1.703125 -0.1875 C 1.578125 -0.3125 1.515625 -0.457031 1.515625 -0.625 L 1.515625 -15.75 C 1.515625 -15.925781 1.578125 -16.078125 1.703125 -16.203125 C 1.828125 -16.328125 1.976562 -16.390625 2.15625 -16.390625 L 9.078125 -16.390625 C 11.328125 -16.390625 13.082031 -15.882812 14.34375 -14.875 C 15.613281 -13.863281 16.25 -12.414062 16.25 -10.53125 C 16.25 -8.65625 15.40625 -7.179688 13.71875 -6.109375 Z M 7.375 -12.03125 L 7.375 -9.546875 L 9.078125 -9.546875 C 9.421875 -9.546875 9.6875 -9.660156 9.875 -9.890625 C 10.0625 -10.117188 10.15625 -10.40625 10.15625 -10.75 C 10.15625 -11.09375 10.066406 -11.390625 9.890625 -11.640625 C 9.710938 -11.898438 9.441406 -12.03125 9.078125 -12.03125 Z M 7.375 -12.03125 "/></g></g></g><g fill="#0b0b0b" fill-opacity="1"><g transform="translate(54.465184, 45.088766)"><g><path d="M 7.140625 -4.5625 L 14.34375 -4.5625 C 14.519531 -4.5625 14.671875 -4.5 14.796875 -4.375 C 14.921875 -4.25 14.984375 -4.101562 14.984375 -3.9375 L 14.984375 -0.625 C 14.984375 -0.457031 14.921875 -0.3125 14.796875 -0.1875 C 14.671875 -0.0625 14.519531 0 14.34375 0 L 2.15625 0 C 1.976562 0 1.828125 -0.0625 1.703125 -0.1875 C 1.578125 -0.3125 1.515625 -0.457031 1.515625 -0.625 L 1.515625 -15.75 C 1.515625 -15.925781 1.578125 -16.078125 1.703125 -16.203125 C 1.828125 -16.328125 1.976562 -16.390625 2.15625 -16.390625 L 14.15625 -16.390625 C 14.332031 -16.390625 14.484375 -16.328125 14.609375 -16.203125 C 14.734375 -16.078125 14.796875 -15.925781 14.796875 -15.75 L 14.796875 -12.453125 C 14.796875 -12.273438 14.734375 -12.125 14.609375 -12 C 14.484375 -11.875 14.332031 -11.8125 14.15625 -11.8125 L 7.140625 -11.8125 L 7.140625 -10.34375 L 13.640625 -10.34375 C 13.816406 -10.34375 13.96875 -10.28125 14.09375 -10.15625 C 14.21875 -10.03125 14.28125 -9.882812 14.28125 -9.71875 L 14.28125 -6.671875 C 14.28125 -6.492188 14.21875 -6.34375 14.09375 -6.21875 C 13.96875 -6.09375 13.816406 -6.03125 13.640625 -6.03125 L 7.140625 -6.03125 Z M 7.140625 -4.5625 "/></g></g></g><g fill="#0b0b0b" fill-opacity="1"><g transform="translate(74.873867, 45.088766)"><g><path d="M 10.765625 0 L 6.171875 0 C 6.003906 0 5.859375 -0.0625 5.734375 -0.1875 C 5.609375 -0.3125 5.546875 -0.457031 5.546875 -0.625 L 5.546875 -5.25 L 0.28125 -15.65625 C 0.25 -15.71875 0.234375 -15.800781 0.234375 -15.90625 C 0.234375 -16.019531 0.28125 -16.128906 0.375 -16.234375 C 0.476562 -16.335938 0.601562 -16.390625 0.75 -16.390625 L 5.15625 -16.390625 C 5.625 -16.390625 5.945312 -16.191406 6.125 -15.796875 L 8.46875 -11.09375 L 10.8125 -15.796875 C 11 -16.191406 11.328125 -16.390625 11.796875 -16.390625 L 16.203125 -16.390625 C 16.335938 -16.390625 16.457031 -16.335938 16.5625 -16.234375 C 16.664062 -16.128906 16.71875 -16.019531 16.71875 -15.90625 C 16.71875 -15.800781 16.703125 -15.71875 16.671875 -15.65625 L 11.40625 -5.25 L 11.40625 -0.625 C 11.40625 -0.457031 11.34375 -0.3125 11.21875 -0.1875 C 11.09375 -0.0625 10.941406 0 10.765625 0 Z M 10.765625 0 "/></g></g></g><g fill="#0b0b0b" fill-opacity="1"><g transform="translate(95.961218, 45.088766)"><g><path d="M 7.140625 -4.5625 L 14.34375 -4.5625 C 14.519531 -4.5625 14.671875 -4.5 14.796875 -4.375 C 14.921875 -4.25 14.984375 -4.101562 14.984375 -3.9375 L 14.984375 -0.625 C 14.984375 -0.457031 14.921875 -0.3125 14.796875 -0.1875 C 14.671875 -0.0625 14.519531 0 14.34375 0 L 2.15625 0 C 1.976562 0 1.828125 -0.0625 1.703125 -0.1875 C 1.578125 -0.3125 1.515625 -0.457031 1.515625 -0.625 L 1.515625 -15.75 C 1.515625 -15.925781 1.578125 -16.078125 1.703125 -16.203125 C 1.828125 -16.328125 1.976562 -16.390625 2.15625 -16.390625 L 14.15625 -16.390625 C 14.332031 -16.390625 14.484375 -16.328125 14.609375 -16.203125 C 14.734375 -16.078125 14.796875 -15.925781 14.796875 -15.75 L 14.796875 -12.453125 C 14.796875 -12.273438 14.734375 -12.125 14.609375 -12 C 14.484375 -11.875 14.332031 -11.8125 14.15625 -11.8125 L 7.140625 -11.8125 L 7.140625 -10.34375 L 13.640625 -10.34375 C 13.816406 -10.34375 13.96875 -10.28125 14.09375 -10.15625 C 14.21875 -10.03125 14.28125 -9.882812 14.28125 -9.71875 L 14.28125 -6.671875 C 14.28125 -6.492188 14.21875 -6.34375 14.09375 -6.21875 C 13.96875 -6.09375 13.816406 -6.03125 13.640625 -6.03125 L 7.140625 -6.03125 Z M 7.140625 -4.5625 "/></g></g></g><g fill="#0b0b0b" fill-opacity="1"><g transform="translate(116.369904, 45.088766)"><g><path d="M 16.59375 -0.765625 C 16.644531 -0.671875 16.671875 -0.566406 16.671875 -0.453125 C 16.671875 -0.347656 16.617188 -0.242188 16.515625 -0.140625 C 16.410156 -0.046875 16.289062 0 16.15625 0 L 11.359375 0 C 10.867188 0 10.53125 -0.207031 10.34375 -0.625 L 8.328125 -5.109375 L 7.375 -5.109375 L 7.375 -0.625 C 7.375 -0.457031 7.3125 -0.3125 7.1875 -0.1875 C 7.0625 -0.0625 6.910156 0 6.734375 0 L 2.15625 0 C 1.976562 0 1.828125 -0.0625 1.703125 -0.1875 C 1.578125 -0.3125 1.515625 -0.457031 1.515625 -0.625 L 1.515625 -15.75 C 1.515625 -15.925781 1.578125 -16.078125 1.703125 -16.203125 C 1.828125 -16.328125 1.976562 -16.390625 2.15625 -16.390625 L 9.078125 -16.390625 C 11.328125 -16.390625 13.082031 -15.882812 14.34375 -14.875 C 15.613281 -13.863281 16.25 -12.414062 16.25 -10.53125 C 16.25 -8.65625 15.40625 -7.179688 13.71875 -6.109375 Z M 7.375 -12.03125 L 7.375 -9.546875 L 9.078125 -9.546875 C 9.421875 -9.546875 9.6875 -9.660156 9.875 -9.890625 C 10.0625 -10.117188 10.15625 -10.40625 10.15625 -10.75 C 10.15625 -11.09375 10.066406 -11.390625 9.890625 -11.640625 C 9.710938 -11.898438 9.441406 -12.03125 9.078125 -12.03125 Z M 7.375 -12.03125 "/></g></g></g></svg>