<svg xmlns="http://www.w3.org/2000/svg" xmlns:xlink="http://www.w3.org/1999/xlink" width="150" zoomAndPan="magnify" viewBox="0 0 112.5 37.5" height="50" preserveAspectRatio="xMidYMid meet" version="1.0"><defs><g/><clipPath id="3a79767365"><path d="M 57.550781 1.777344 L 88.636719 1.777344 L 88.636719 25.460938 L 57.550781 25.460938 Z M 57.550781 1.777344 " clip-rule="nonzero"/></clipPath></defs><g clip-path="url(#3a79767365)"><path fill="#ffee00" d="M 88.484375 16.1875 C 88.355469 16.65625 88.222656 17.015625 87.449219 16.996094 C 87.128906 16.988281 86.808594 16.945312 86.496094 16.871094 C 85.160156 16.65625 83.601562 16.269531 82.28125 15.910156 C 82.253906 15.902344 82.222656 15.890625 82.191406 15.882812 C 80.605469 15.445312 79.386719 15.054688 79.386719 15.054688 C 78.660156 14.941406 77.90625 15 77.164062 14.972656 C 76.867188 14.964844 76.566406 14.921875 76.070312 14.875 C 76.394531 15.21875 76.585938 15.4375 76.792969 15.636719 C 77.550781 16.355469 78.34375 17.03125 79.058594 17.785156 C 79.609375 18.367188 80.058594 19.039062 80.558594 19.671875 C 80.660156 19.792969 80.769531 19.90625 80.894531 20.007812 C 81.648438 20.65625 81.800781 21.273438 81.417969 22.273438 L 80.949219 22.664062 C 80.269531 22.714844 79.984375 22.425781 79.574219 21.882812 C 78.710938 20.738281 77.539062 19.824219 76.527344 18.78125 C 75.648438 17.871094 74.8125 16.917969 73.964844 15.980469 C 73.605469 15.582031 73.257812 15.171875 72.832031 14.679688 C 72.648438 16.089844 72.464844 17.386719 72.320312 18.6875 C 72.191406 19.839844 72.214844 21.023438 71.957031 22.140625 C 71.925781 22.3125 71.910156 22.488281 71.917969 22.664062 L 71.917969 22.675781 C 71.917969 22.804688 71.90625 22.929688 71.882812 23.054688 C 71.824219 23.585938 71.648438 24.496094 71.148438 24.757812 C 70.722656 25.097656 70.101562 25.402344 69.675781 24.84375 C 69.445312 24.546875 69.472656 23.988281 69.511719 23.558594 C 69.691406 21.601562 69.894531 19.644531 70.128906 17.6875 C 70.191406 17.179688 70.367188 16.679688 70.496094 16.175781 L 70.332031 16.0625 C 69.417969 16.636719 68.511719 17.234375 67.582031 17.789062 C 65.855469 18.816406 64.128906 19.859375 62.359375 20.8125 C 61.328125 21.589844 60.78125 21.042969 60.78125 21.042969 C 60.738281 20.945312 60.691406 20.847656 60.644531 20.75 C 60.804688 20.511719 60.914062 20.199219 61.136719 20.039062 C 62.425781 19.101562 63.742188 18.199219 65.046875 17.28125 C 66.015625 16.601562 66.976562 15.917969 67.941406 15.242188 C 68.457031 14.882812 68.980469 14.539062 69.621094 14.105469 C 68.398438 13.902344 67.324219 13.753906 66.261719 13.546875 C 64.730469 13.246094 63.207031 12.898438 61.675781 12.585938 C 61.214844 12.492188 60.730469 12.492188 60.285156 12.367188 C 59.695312 12.199219 59.128906 11.953125 58.550781 11.734375 C 58.4375 11.691406 58.320312 11.582031 58.214844 11.59375 C 57.550781 10.785156 58.34375 10.585938 58.34375 10.585938 C 60.492188 10.835938 62.640625 11.097656 64.785156 11.386719 C 65.910156 11.539062 67.027344 11.78125 68.152344 11.921875 C 69.007812 12.027344 69.875 12.03125 70.703125 12.082031 C 69.65625 10.808594 68.675781 9.652344 67.738281 8.460938 C 66.878906 7.371094 65.984375 6.289062 65.78125 4.8125 C 65.769531 4.714844 65.8125 4.667969 65.90625 4.675781 C 67.074219 4.757812 67.566406 5.6875 68.238281 6.34375 C 68.972656 7.054688 69.667969 7.800781 70.367188 8.546875 C 70.691406 8.890625 70.980469 9.265625 71.386719 9.742188 C 71.558594 8.828125 71.714844 8.042969 71.851562 7.25 C 72.03125 6.21875 72.183594 5.183594 72.367188 4.152344 C 72.480469 3.496094 72.59375 2.835938 72.785156 2.199219 C 72.800781 2.144531 72.832031 2.09375 72.871094 2.050781 C 73.105469 1.78125 73.558594 1.828125 73.75 2.132812 C 73.78125 2.179688 73.804688 2.230469 73.8125 2.289062 C 74.144531 4.558594 73.78125 6.785156 73.378906 9.011719 C 73.28125 9.570312 73.339844 10.152344 73.316406 10.726562 C 73.308594 10.96875 73.285156 11.210938 73.257812 11.554688 C 74.25 10.9375 75.277344 10.382812 76.210938 9.699219 C 77.566406 8.707031 78.847656 7.621094 80.164062 6.582031 C 80.835938 6.054688 81.714844 6.183594 82.125 6.855469 C 82.359375 7.242188 82.003906 8.070312 81.429688 8.417969 L 80.242188 9.320312 C 78.859375 10.363281 77.449219 11.378906 76.050781 12.402344 C 75.945312 12.476562 75.84375 12.554688 75.722656 12.640625 C 77.144531 12.84375 78.484375 12.996094 79.8125 13.234375 C 81.585938 13.550781 83.347656 13.914062 85.105469 14.296875 C 86.027344 14.496094 86.9375 14.742188 87.832031 15.03125 C 88.34375 15.199219 88.636719 15.644531 88.484375 16.1875 Z M 88.484375 16.1875 " fill-opacity="1" fill-rule="nonzero"/></g><g fill="#0b0b0b" fill-opacity="1"><g transform="translate(4.194079, 15.560158)"><g><path d="M 12.484375 -0.578125 C 12.523438 -0.515625 12.546875 -0.4375 12.546875 -0.34375 C 12.546875 -0.257812 12.503906 -0.179688 12.421875 -0.109375 C 12.347656 -0.0351562 12.257812 0 12.15625 0 L 8.203125 0 C 7.867188 0 7.632812 -0.132812 7.5 -0.40625 L 5.375 -4.1875 L 5.375 -0.46875 C 5.375 -0.34375 5.328125 -0.234375 5.234375 -0.140625 C 5.140625 -0.046875 5.03125 0 4.90625 0 L 1.59375 0 C 1.46875 0 1.359375 -0.046875 1.265625 -0.140625 C 1.171875 -0.234375 1.125 -0.34375 1.125 -0.46875 L 1.125 -11.671875 C 1.125 -11.796875 1.171875 -11.90625 1.265625 -12 C 1.359375 -12.09375 1.46875 -12.140625 1.59375 -12.140625 L 4.90625 -12.140625 C 5.03125 -12.140625 5.140625 -12.09375 5.234375 -12 C 5.328125 -11.90625 5.375 -11.796875 5.375 -11.671875 L 5.375 -8.234375 L 7.34375 -11.765625 C 7.46875 -12.015625 7.695312 -12.140625 8.03125 -12.140625 L 11.859375 -12.140625 C 11.960938 -12.140625 12.050781 -12.101562 12.125 -12.03125 C 12.207031 -11.957031 12.25 -11.875 12.25 -11.78125 C 12.25 -11.695312 12.226562 -11.625 12.1875 -11.5625 L 9.078125 -6.328125 Z M 12.484375 -0.578125 "/></g></g></g><g fill="#0b0b0b" fill-opacity="1"><g transform="translate(19.971276, 15.560158)"><g><path d="M 4.921875 -12.140625 L 8.6875 -12.140625 C 9.101562 -12.140625 9.363281 -11.945312 9.46875 -11.5625 L 13.34375 -0.5 C 13.351562 -0.46875 13.359375 -0.410156 13.359375 -0.328125 C 13.359375 -0.253906 13.316406 -0.179688 13.234375 -0.109375 C 13.160156 -0.0351562 13.070312 0 12.96875 0 L 9.765625 0 C 9.421875 0 9.195312 -0.144531 9.09375 -0.4375 L 8.671875 -1.578125 L 4.9375 -1.578125 L 4.53125 -0.4375 C 4.425781 -0.144531 4.195312 0 3.84375 0 L 0.640625 0 C 0.535156 0 0.445312 -0.0351562 0.375 -0.109375 C 0.300781 -0.179688 0.265625 -0.253906 0.265625 -0.328125 C 0.265625 -0.410156 0.269531 -0.46875 0.28125 -0.5 L 4.140625 -11.5625 C 4.242188 -11.945312 4.503906 -12.140625 4.921875 -12.140625 Z M 5.828125 -4.953125 L 7.78125 -4.953125 L 6.796875 -8.1875 Z M 5.828125 -4.953125 "/></g></g></g><g fill="#0b0b0b" fill-opacity="1"><g transform="translate(36.64991, 15.560158)"><g><path d="M 12.296875 -0.578125 C 12.328125 -0.503906 12.34375 -0.425781 12.34375 -0.34375 C 12.34375 -0.257812 12.304688 -0.179688 12.234375 -0.109375 C 12.160156 -0.0351562 12.070312 0 11.96875 0 L 8.40625 0 C 8.050781 0 7.804688 -0.15625 7.671875 -0.46875 L 6.171875 -3.78125 L 5.46875 -3.78125 L 5.46875 -0.46875 C 5.46875 -0.34375 5.421875 -0.234375 5.328125 -0.140625 C 5.234375 -0.046875 5.125 0 5 0 L 1.59375 0 C 1.46875 0 1.359375 -0.046875 1.265625 -0.140625 C 1.171875 -0.234375 1.125 -0.34375 1.125 -0.46875 L 1.125 -11.671875 C 1.125 -11.796875 1.171875 -11.90625 1.265625 -12 C 1.359375 -12.09375 1.46875 -12.140625 1.59375 -12.140625 L 6.734375 -12.140625 C 8.398438 -12.140625 9.695312 -11.765625 10.625 -11.015625 C 11.5625 -10.273438 12.03125 -9.207031 12.03125 -7.8125 C 12.03125 -6.414062 11.40625 -5.320312 10.15625 -4.53125 Z M 5.46875 -8.921875 L 5.46875 -7.078125 L 6.734375 -7.078125 C 6.984375 -7.078125 7.175781 -7.160156 7.3125 -7.328125 C 7.457031 -7.492188 7.53125 -7.703125 7.53125 -7.953125 C 7.53125 -8.210938 7.460938 -8.4375 7.328125 -8.625 C 7.191406 -8.820312 6.992188 -8.921875 6.734375 -8.921875 Z M 5.46875 -8.921875 "/></g></g></g><g fill="#0b0b0b" fill-opacity="1"><g transform="translate(52.583132, 15.560158)"><g><path d="M 5.140625 0 L 1.59375 0 C 1.46875 0 1.359375 -0.046875 1.265625 -0.140625 C 1.171875 -0.234375 1.125 -0.34375 1.125 -0.46875 L 1.125 -11.671875 C 1.125 -11.796875 1.171875 -11.90625 1.265625 -12 C 1.359375 -12.09375 1.46875 -12.140625 1.59375 -12.140625 L 5.140625 -12.140625 C 5.265625 -12.140625 5.375 -12.09375 5.46875 -12 C 5.5625 -11.90625 5.609375 -11.796875 5.609375 -11.671875 L 5.609375 -0.46875 C 5.609375 -0.34375 5.5625 -0.234375 5.46875 -0.140625 C 5.375 -0.046875 5.265625 0 5.140625 0 Z M 5.140625 0 "/></g></g></g><g fill="#0b0b0b" fill-opacity="1"><g transform="translate(4.194079, 32.29306)"><g><path d="M 1.59375 -12.140625 L 6.59375 -12.140625 C 8.28125 -12.140625 9.671875 -11.71875 10.765625 -10.875 C 11.859375 -10.039062 12.40625 -8.875 12.40625 -7.375 L 12.40625 -4.78125 C 12.40625 -3.207031 11.867188 -2.015625 10.796875 -1.203125 C 9.734375 -0.398438 8.335938 0 6.609375 0 L 1.59375 0 C 1.46875 0 1.359375 -0.046875 1.265625 -0.140625 C 1.171875 -0.234375 1.125 -0.34375 1.125 -0.46875 L 1.125 -11.671875 C 1.125 -11.796875 1.171875 -11.90625 1.265625 -12 C 1.359375 -12.09375 1.46875 -12.140625 1.59375 -12.140625 Z M 5.46875 -8.765625 L 5.46875 -3.375 L 6.59375 -3.375 C 6.988281 -3.375 7.300781 -3.492188 7.53125 -3.734375 C 7.769531 -3.972656 7.890625 -4.320312 7.890625 -4.78125 L 7.890625 -7.375 C 7.890625 -8.300781 7.457031 -8.765625 6.59375 -8.765625 Z M 5.46875 -8.765625 "/></g></g></g><g fill="#0b0b0b" fill-opacity="1"><g transform="translate(20.439329, 32.29306)"><g><path d="M 12.296875 -0.578125 C 12.328125 -0.503906 12.34375 -0.425781 12.34375 -0.34375 C 12.34375 -0.257812 12.304688 -0.179688 12.234375 -0.109375 C 12.160156 -0.0351562 12.070312 0 11.96875 0 L 8.40625 0 C 8.050781 0 7.804688 -0.15625 7.671875 -0.46875 L 6.171875 -3.78125 L 5.46875 -3.78125 L 5.46875 -0.46875 C 5.46875 -0.34375 5.421875 -0.234375 5.328125 -0.140625 C 5.234375 -0.046875 5.125 0 5 0 L 1.59375 0 C 1.46875 0 1.359375 -0.046875 1.265625 -0.140625 C 1.171875 -0.234375 1.125 -0.34375 1.125 -0.46875 L 1.125 -11.671875 C 1.125 -11.796875 1.171875 -11.90625 1.265625 -12 C 1.359375 -12.09375 1.46875 -12.140625 1.59375 -12.140625 L 6.734375 -12.140625 C 8.398438 -12.140625 9.695312 -11.765625 10.625 -11.015625 C 11.5625 -10.273438 12.03125 -9.207031 12.03125 -7.8125 C 12.03125 -6.414062 11.40625 -5.320312 10.15625 -4.53125 Z M 5.46875 -8.921875 L 5.46875 -7.078125 L 6.734375 -7.078125 C 6.984375 -7.078125 7.175781 -7.160156 7.3125 -7.328125 C 7.457031 -7.492188 7.53125 -7.703125 7.53125 -7.953125 C 7.53125 -8.210938 7.460938 -8.4375 7.328125 -8.625 C 7.191406 -8.820312 6.992188 -8.921875 6.734375 -8.921875 Z M 5.46875 -8.921875 "/></g></g></g><g fill="#0b0b0b" fill-opacity="1"><g transform="translate(36.372551, 32.29306)"><g><path d="M 5.296875 -3.375 L 10.625 -3.375 C 10.757812 -3.375 10.867188 -3.328125 10.953125 -3.234375 C 11.046875 -3.148438 11.09375 -3.039062 11.09375 -2.90625 L 11.09375 -0.46875 C 11.09375 -0.34375 11.046875 -0.234375 10.953125 -0.140625 C 10.867188 -0.046875 10.757812 0 10.625 0 L 1.59375 0 C 1.46875 0 1.359375 -0.046875 1.265625 -0.140625 C 1.171875 -0.234375 1.125 -0.34375 1.125 -0.46875 L 1.125 -11.671875 C 1.125 -11.796875 1.171875 -11.90625 1.265625 -12 C 1.359375 -12.09375 1.46875 -12.140625 1.59375 -12.140625 L 10.5 -12.140625 C 10.625 -12.140625 10.734375 -12.09375 10.828125 -12 C 10.921875 -11.90625 10.96875 -11.796875 10.96875 -11.671875 L 10.96875 -9.234375 C 10.96875 -9.097656 10.921875 -8.984375 10.828125 -8.890625 C 10.734375 -8.804688 10.625 -8.765625 10.5 -8.765625 L 5.296875 -8.765625 L 5.296875 -7.671875 L 10.109375 -7.671875 C 10.234375 -7.671875 10.34375 -7.625 10.4375 -7.53125 C 10.53125 -7.4375 10.578125 -7.328125 10.578125 -7.203125 L 10.578125 -4.9375 C 10.578125 -4.8125 10.53125 -4.703125 10.4375 -4.609375 C 10.34375 -4.515625 10.234375 -4.46875 10.109375 -4.46875 L 5.296875 -4.46875 Z M 5.296875 -3.375 "/></g></g></g><g fill="#0b0b0b" fill-opacity="1"><g transform="translate(51.491012, 32.29306)"><g><path d="M 7.984375 0 L 4.578125 0 C 4.453125 0 4.34375 -0.046875 4.25 -0.140625 C 4.15625 -0.234375 4.109375 -0.34375 4.109375 -0.46875 L 4.109375 -3.890625 L 0.203125 -11.609375 C 0.179688 -11.648438 0.171875 -11.710938 0.171875 -11.796875 C 0.171875 -11.878906 0.207031 -11.957031 0.28125 -12.03125 C 0.363281 -12.101562 0.457031 -12.140625 0.5625 -12.140625 L 3.8125 -12.140625 C 4.164062 -12.140625 4.410156 -11.992188 4.546875 -11.703125 L 6.28125 -8.21875 L 8.015625 -11.703125 C 8.148438 -11.992188 8.390625 -12.140625 8.734375 -12.140625 L 12 -12.140625 C 12.101562 -12.140625 12.191406 -12.101562 12.265625 -12.03125 C 12.347656 -11.957031 12.390625 -11.878906 12.390625 -11.796875 C 12.390625 -11.710938 12.375 -11.648438 12.34375 -11.609375 L 8.453125 -3.890625 L 8.453125 -0.46875 C 8.453125 -0.34375 8.40625 -0.234375 8.3125 -0.140625 C 8.21875 -0.046875 8.109375 0 7.984375 0 Z M 7.984375 0 "/></g></g></g><g fill="#0b0b0b" fill-opacity="1"><g transform="translate(67.112196, 32.29306)"><g><path d="M 5.296875 -3.375 L 10.625 -3.375 C 10.757812 -3.375 10.867188 -3.328125 10.953125 -3.234375 C 11.046875 -3.148438 11.09375 -3.039062 11.09375 -2.90625 L 11.09375 -0.46875 C 11.09375 -0.34375 11.046875 -0.234375 10.953125 -0.140625 C 10.867188 -0.046875 10.757812 0 10.625 0 L 1.59375 0 C 1.46875 0 1.359375 -0.046875 1.265625 -0.140625 C 1.171875 -0.234375 1.125 -0.34375 1.125 -0.46875 L 1.125 -11.671875 C 1.125 -11.796875 1.171875 -11.90625 1.265625 -12 C 1.359375 -12.09375 1.46875 -12.140625 1.59375 -12.140625 L 10.5 -12.140625 C 10.625 -12.140625 10.734375 -12.09375 10.828125 -12 C 10.921875 -11.90625 10.96875 -11.796875 10.96875 -11.671875 L 10.96875 -9.234375 C 10.96875 -9.097656 10.921875 -8.984375 10.828125 -8.890625 C 10.734375 -8.804688 10.625 -8.765625 10.5 -8.765625 L 5.296875 -8.765625 L 5.296875 -7.671875 L 10.109375 -7.671875 C 10.234375 -7.671875 10.34375 -7.625 10.4375 -7.53125 C 10.53125 -7.4375 10.578125 -7.328125 10.578125 -7.203125 L 10.578125 -4.9375 C 10.578125 -4.8125 10.53125 -4.703125 10.4375 -4.609375 C 10.34375 -4.515625 10.234375 -4.46875 10.109375 -4.46875 L 5.296875 -4.46875 Z M 5.296875 -3.375 "/></g></g></g><g fill="#0b0b0b" fill-opacity="1"><g transform="translate(82.230657, 32.29306)"><g><path d="M 12.296875 -0.578125 C 12.328125 -0.503906 12.34375 -0.425781 12.34375 -0.34375 C 12.34375 -0.257812 12.304688 -0.179688 12.234375 -0.109375 C 12.160156 -0.0351562 12.070312 0 11.96875 0 L 8.40625 0 C 8.050781 0 7.804688 -0.15625 7.671875 -0.46875 L 6.171875 -3.78125 L 5.46875 -3.78125 L 5.46875 -0.46875 C 5.46875 -0.34375 5.421875 -0.234375 5.328125 -0.140625 C 5.234375 -0.046875 5.125 0 5 0 L 1.59375 0 C 1.46875 0 1.359375 -0.046875 1.265625 -0.140625 C 1.171875 -0.234375 1.125 -0.34375 1.125 -0.46875 L 1.125 -11.671875 C 1.125 -11.796875 1.171875 -11.90625 1.265625 -12 C 1.359375 -12.09375 1.46875 -12.140625 1.59375 -12.140625 L 6.734375 -12.140625 C 8.398438 -12.140625 9.695312 -11.765625 10.625 -11.015625 C 11.5625 -10.273438 12.03125 -9.207031 12.03125 -7.8125 C 12.03125 -6.414062 11.40625 -5.320312 10.15625 -4.53125 Z M 5.46875 -8.921875 L 5.46875 -7.078125 L 6.734375 -7.078125 C 6.984375 -7.078125 7.175781 -7.160156 7.3125 -7.328125 C 7.457031 -7.492188 7.53125 -7.703125 7.53125 -7.953125 C 7.53125 -8.210938 7.460938 -8.4375 7.328125 -8.625 C 7.191406 -8.820312 6.992188 -8.921875 6.734375 -8.921875 Z M 5.46875 -8.921875 "/></g></g></g></svg>